<?xml version="1.0" encoding="UTF-8"?>
<!-- Generator: Adobe Illustrator 22.0.1, SVG Export Plug-In . SVG Version: 6.00 Build 0)  -->
<svg version="1.1" id="TFC_AT_THE_MOVIES" xmlns="http://www.w3.org/2000/svg" xmlns:xlink="http://www.w3.org/1999/xlink" x="0px" y="0px" width="250.1px" height="99.18px" viewBox="0 0 250.1 99.18" enable-background="new 0 0 250.1 99.18" xml:space="preserve">
<g>
	<path d="M139.3,30.66l-0.35,2.65c-8.81,3.43-17.13,13.73-17.13,13.73l-2.09-2.16c0,0,1.03-0.96,1.31-1.7   c0.28-0.67,1.7-3.15-11.11-4.67c-10.01-1.2-12.1,2.97-12.53,4.85c0,0.18-0.04,0.32-0.07,0.5c-0.04,0.25-0.07,0.42-0.07,0.42   c-0.5,2.9-1.13,6.4-1.77,10.09c1.2-0.14,2.34-0.28,3.26-0.46c7.11-1.24,10.51-1.13,13.77-1.13c3.22,0,7.22,0.67,9.31,1.24   c2.12,0.57,2.83,1.1,2.83,1.1l-14.58,17.34c0,0-6.58-4.99-16.53-7.11c-1.73,9.77-3.29,18.54-3.5,19.82   c-0.53,3.01-0.99,6.51,0.78,8.39c1.24,1.34,4.46,1.73,6.26,1.88l-0.32,1.84H60.1l0.32-1.84c1.88-0.14,5.24-0.57,6.94-1.88   c2.41-1.88,3.18-5.38,3.72-8.39c0.25-1.34,2.02-11.36,3.89-21.98c-4.56-0.39-7.47-0.57-7.47-0.57l6.48-6.72c0,0,0.88-0.04,2.3-0.11   c0.85-4.74,1.63-9.2,2.23-12.63c1.31-8.71,0.5-12.49,0.5-12.49H139.3z M190.78,86.92l0.53,1.88c-2.23,1.24-4.28,2.97-8.46,4.99   c-7.86,3.79-16.1,5.34-24.52,5.34c-13.87,0-24.31-3.43-31.32-10.33c-4.88-5.06-7.11-9.66-7.5-15.75c-0.21-2.48,0-5.59,0-5.59   s1.77-2.37,4.39-5.52c2.16-2.62,5.91-6.62,6.97-7.79c-0.53-0.18-2.12-0.74-3.47-1.13c-1.34-0.42-2.8-0.78-2.8-0.78   c4-6.4,7.4-8.95,11.57-12.07c4.28-3.18,8.17-5.31,10.72-6.48c5.84-2.69,15.11-4,23.85-4c4.74,0,9.45,0.53,14.12,1.66   c1.7,0.35,3.43,0.71,5.2,0.96c2.62,0.42,4.35,0.64,5.2,0.64c1.17,0,2.48-0.25,3.86-0.78c1.38-0.5,2.65-1.34,3.79-2.51h2.72   l-12.14,22.65h-2.97c0,0,0-15.78-23.46-15.78s-28.7,21.44-29.72,27.28c-1.03,5.8-2.34,28.95,19.82,28.95   c15.96,0,26.26-9.41,30.79-14.65L190.78,86.92z M74.36,30.91l-8.07,15.43l-0.67,1.24h-3.08c1.84-10.4-14.12-9.27-14.12-9.27h-2.37   c-1.52,8.49-7.82,44.27-8.28,46.92c-0.53,3.01-0.99,6.51,0.78,8.39c1.24,1.34,4.46,1.73,6.26,1.88l-0.32,1.84H7.84l0.32-1.84   c1.84-0.14,5.24-0.57,6.94-1.88c2.44-1.88,3.18-5.38,3.72-8.39c0.46-2.65,6.79-38.39,8.28-46.92H0.05l8.67-16.67h3.01   c-1.84,10.4,11.82,9.27,11.82,9.27H74.36z"/>
	<g>
		<g>
			
				<linearGradient id="SVGID_1_" gradientUnits="userSpaceOnUse" x1="218.0926" y1="24.2185" x2="237.4162" y2="24.2185" gradientTransform="matrix(1 0 0.1745 -1 -7.1924 101.18)">
				<stop offset="0" style="stop-color:#056635"/>
				<stop offset="0.5" style="stop-color:#03A550"/>
				<stop offset="1" style="stop-color:#056635"/>
			</linearGradient>
			<path fill="url(#SVGID_1_)" d="M236.18,65.3c-4.42,3.04-14.51,9.45-21.44,13.87c0,3.01-0.21,6.23-0.67,9.55     c4.81-4.92,17.59-18.37,22.44-23.53C236.4,65.2,236.29,65.27,236.18,65.3z"/>
			
				<linearGradient id="SVGID_2_" gradientUnits="userSpaceOnUse" x1="216.1415" y1="28.9426" x2="237.1163" y2="28.9426" gradientTransform="matrix(1 0 0.1745 -1 -7.1924 101.18)">
				<stop offset="0" style="stop-color:#89181A"/>
				<stop offset="0.5644" style="stop-color:#EB2227"/>
				<stop offset="1" style="stop-color:#89181A"/>
			</linearGradient>
			<path fill="url(#SVGID_2_)" d="M214.21,71.03c0.35,2.51,0.53,5.24,0.53,8.14c6.94-4.39,17.02-10.83,21.44-13.87     C230.42,67.46,222.81,69.48,214.21,71.03z"/>
			
				<linearGradient id="SVGID_3_" gradientUnits="userSpaceOnUse" x1="218.9742" y1="19.7952" x2="237.5162" y2="19.7952" gradientTransform="matrix(1 0 0.1745 -1 -7.1924 101.18)">
				<stop offset="0" style="stop-color:#223D78"/>
				<stop offset="0.1285" style="stop-color:#213F7A"/>
				<stop offset="0.2507" style="stop-color:#204681"/>
				<stop offset="0.3705" style="stop-color:#1D518D"/>
				<stop offset="0.4879" style="stop-color:#1960A0"/>
				<stop offset="0.589" style="stop-color:#0B72BA"/>
				<stop offset="1" style="stop-color:#1E4384"/>
			</linearGradient>
			<path fill="url(#SVGID_3_)" d="M212.4,97.61l2.87-0.64l21.34-31.81c-0.04,0-0.07,0.04-0.11,0.04     c-4.85,5.17-17.62,18.61-22.44,23.53c-0.14,1.03-0.28,2.09-0.5,3.11C213.29,93.82,212.86,95.73,212.4,97.61z"/>
		</g>
		<g>
			
				<linearGradient id="SVGID_4_" gradientUnits="userSpaceOnUse" x1="229.3718" y1="31.9914" x2="248.9722" y2="65.9403" gradientTransform="matrix(1 0 0 -1 0 101.18)">
				<stop offset="0" style="stop-color:#F69321"/>
				<stop offset="0.1842" style="stop-color:#F8B822"/>
				<stop offset="0.3862" style="stop-color:#FADD22"/>
				<stop offset="0.4847" style="stop-color:#FCEE21"/>
				<stop offset="0.9264" style="stop-color:#FAB816"/>
			</linearGradient>
			<path fill="url(#SVGID_4_)" d="M226.81,67.71c0,0-3.61-3.11-1.8-7.43c3.18-7.54,15.46-8.1,20.49-17.45     c3.22-5.98,1.06-8.99,1.06-8.99s5.52,6.58,2.69,16.67c-1.63,5.87-6.37,8.81-11.68,10.26C231.34,62.51,225.04,63.89,226.81,67.71z     "/>
			
				<linearGradient id="SVGID_5_" gradientUnits="userSpaceOnUse" x1="218.9579" y1="35.8575" x2="258.3871" y2="104.1508" gradientTransform="matrix(1 0 0 -1 0 101.18)">
				<stop offset="0" style="stop-color:#F69321"/>
				<stop offset="0.1842" style="stop-color:#F8B822"/>
				<stop offset="0.3862" style="stop-color:#FADD22"/>
				<stop offset="0.4847" style="stop-color:#FCEE21"/>
				<stop offset="0.9264" style="stop-color:#FAB816"/>
			</linearGradient>
			<path fill="url(#SVGID_5_)" d="M226.13,67.99c0,0-11.32-4.6-8.78-15.92c1.56-6.97,9.27-13.98,9.27-13.98s-0.5,0.6-1.06,2.87     c-0.46,1.7-0.42,3.36-0.42,3.36s2.37-5.1,10.58-9.31c10.37-5.31,6.23-12.56,6.23-12.56s11.29,11.15-4.21,24.35     C228.9,54.3,218.7,59.68,226.13,67.99z"/>
			
				<linearGradient id="SVGID_6_" gradientUnits="userSpaceOnUse" x1="212.8615" y1="41.5879" x2="242.836" y2="93.5052" gradientTransform="matrix(0.9995 -0.0327 0.1416 -1.0052 -8.9728 108.762)">
				<stop offset="0" style="stop-color:#F69321"/>
				<stop offset="0.1842" style="stop-color:#F8B822"/>
				<stop offset="0.3862" style="stop-color:#FADD22"/>
				<stop offset="0.4847" style="stop-color:#FCEE21"/>
				<stop offset="0.9264" style="stop-color:#FAB816"/>
			</linearGradient>
			<path fill="url(#SVGID_6_)" d="M223.59,67.46c0,0-26.61-9.2-17.94-28.31c4.64-10.23,16.67-16.21,24.74-23.28     c9.48-8.39,5.24-15.82,5.24-15.82s15.92,17.16-1.13,29.69C210.49,47.36,212.9,60.91,223.59,67.46z"/>
		</g>
	</g>
</g>
</svg>